# Blender v2.77 (sub 0) OBJ File: ''
# www.blender.org
mtllib square_black.mtl
o Cube
v 5.000000 -0.100000 -5.000000
v 5.000000 -0.100000 5.000000
v -5.000000 -0.100000 4.999999
v -4.999998 -0.100000 -5.000002
v 5.000002 0.100000 -4.999997
v 4.999997 0.100000 5.000003
v -5.000002 0.100000 4.999998
v -5.000000 0.100000 -5.000000
vt 0.0000 0.6667
vt 0.3333 1.0000
vt 0.0000 1.0000
vt 0.3333 0.6667
vt 0.0000 0.3333
vt 0.3333 0.3333
vt 0.6667 0.0000
vt 0.6667 0.3333
vt 0.0000 0.0000
vt 0.3333 0.3333
vt 0.0000 0.3333
vt 1.0000 0.3333
vt 0.6667 0.0000
vt 1.0000 0.0000
vt 0.3333 0.6667
vt 0.0000 0.6667
vt 0.3333 0.0000
vt 0.3333 0.0000
vt 0.6667 0.3333
vt 0.6667 0.6667
vn 0.0000 -1.0000 0.0000
vn 0.0000 1.0000 0.0000
vn 1.0000 -0.0000 0.0000
vn -0.0000 -0.0000 1.0000
vn -1.0000 -0.0000 -0.0000
vn 0.0000 0.0000 -1.0000
usemtl square_black
s off
f 1/1/1 3/2/1 4/3/1
f 8/4/2 6/5/2 5/6/2
f 5/6/3 2/7/3 1/8/3
f 6/9/4 3/10/4 2/11/4
f 3/12/5 8/13/5 4/14/5
f 1/8/6 8/4/6 5/6/6
f 1/1/1 2/15/1 3/2/1
f 8/4/2 7/16/2 6/5/2
f 5/6/3 6/17/3 2/7/3
f 6/9/4 7/18/4 3/10/4
f 3/12/5 7/19/5 8/13/5
f 1/8/6 4/20/6 8/4/6
