# Blender v2.77 (sub 0) OBJ File: ''
# www.blender.org
mtllib square_white.mtl
o Cube.001
v 5.000000 -0.099999 -5.000000
v 5.000000 -0.100001 5.000000
v -5.000000 -0.100001 4.999999
v -4.999998 -0.099999 -5.000002
v 5.000002 0.100001 -4.999997
v -5.000000 0.100001 -5.000000
v -5.000002 0.099999 4.999998
v 4.999997 0.099999 5.000003
vt 0.0000 0.6667
vt 0.3333 0.6667
vt 0.3333 1.0000
vt 0.0000 1.0000
vt 0.3333 0.3333
vt 0.3333 0.6667
vt 0.0000 0.6667
vt 0.0000 0.3333
vt 0.6667 0.3333
vt 0.3333 0.0000
vt 0.6667 0.0000
vt 0.0000 0.3333
vt 0.0000 0.0000
vt 0.3333 0.0000
vt 0.3333 0.3333
vt 1.0000 0.3333
vt 0.6667 0.3333
vt 0.6667 0.0000
vt 1.0000 0.0000
vt 0.6667 0.6667
vn 0.0000 -1.0000 -0.0000
vn -0.0000 1.0000 0.0000
vn 1.0000 0.0000 0.0000
vn -0.0000 -0.0000 1.0000
vn -1.0000 -0.0000 -0.0000
vn 0.0000 0.0000 -1.0000
usemtl square_white
s 1
f 1/1/1 2/2/1 3/3/1 4/4/1
f 5/5/2 6/6/2 7/7/2 8/8/2
f 1/9/3 5/5/3 8/10/3 2/11/3
f 2/12/4 8/13/4 7/14/4 3/15/4
f 3/16/5 7/17/5 6/18/5 4/19/5
f 5/5/6 1/9/6 4/20/6 6/6/6
