# Blender v2.77 (sub 0) OBJ File: 'general_piece.blend'
# www.blender.org
mtllib general_piece.mtl
o Cylinder
v 0.000000 -0.401293 -4.000000
v 0.000000 0.598707 -4.000000
v 0.780361 0.598707 -3.923141
v 0.780361 -0.401293 -3.923141
v 1.530734 -0.401293 -3.695518
v 2.222281 -0.401293 -3.325878
v 2.828427 -0.401293 -2.828427
v 3.325879 -0.401293 -2.222281
v 3.695518 -0.401293 -1.530734
v 3.923141 -0.401293 -0.780361
v 4.000000 -0.401293 -0.000000
v 3.923141 -0.401293 0.780361
v 3.695518 -0.401293 1.530733
v 3.325879 -0.401293 2.222281
v 2.828427 -0.401293 2.828427
v 2.222281 -0.401293 3.325879
v 1.530733 -0.401293 3.695518
v 0.780360 -0.401293 3.923141
v -0.000001 -0.401293 4.000000
v -0.780363 -0.401293 3.923141
v -1.530735 -0.401293 3.695517
v -2.222283 -0.401293 3.325877
v -2.828429 -0.401293 2.828425
v -3.325880 -0.401293 2.222279
v -3.695519 -0.401293 1.530731
v -3.923142 -0.401293 0.780358
v -4.000000 -0.401293 -0.000004
v -3.923140 -0.401293 -0.780365
v -3.695516 -0.401293 -1.530738
v -3.325876 -0.401293 -2.222285
v -2.828424 -0.401293 -2.828431
v -2.222276 -0.401293 -3.325881
v -1.530728 -0.401293 -3.695520
v -0.780355 -0.401293 -3.923142
v -0.780355 0.598707 -3.923142
v -1.530728 0.598707 -3.695520
v -2.222276 0.598707 -3.325881
v -2.828424 0.598707 -2.828431
v -3.325876 0.598707 -2.222285
v -3.695516 0.598707 -1.530738
v -3.923140 0.598707 -0.780365
v -4.000000 0.598707 -0.000004
v -3.272865 0.598707 -0.000003
v -3.209978 0.598707 -0.638508
v -3.023731 0.598707 -1.252475
v -2.721285 0.598707 -1.818309
v -2.314263 0.598708 -2.314268
v -1.818303 0.598707 -2.721290
v -1.252466 0.598708 -3.023735
v -0.638499 0.598707 -3.209979
v 0.000000 0.598707 -3.272864
v 0.638505 0.598706 -3.209980
v 1.252473 0.598706 -3.023735
v 1.818307 0.598708 -2.721289
v 2.314266 0.598708 -2.314266
v 2.721289 0.598708 -1.818307
v 3.023734 0.598708 -1.252471
v 3.209979 0.598708 -0.638505
v 3.272865 0.598707 -0.000001
v 4.000000 0.598707 -0.000000
v 3.923141 0.598707 -0.780361
v 3.695518 0.598707 -1.530734
v 3.325879 0.598707 -2.222281
v 2.828427 0.598707 -2.828427
v 2.222281 0.598707 -3.325878
v 1.530734 0.598707 -3.695518
v 3.923141 0.598707 0.780361
v 3.695518 0.598707 1.530733
v 3.325879 0.598707 2.222281
v 2.828427 0.598707 2.828427
v 2.222281 0.598707 3.325879
v 1.530733 0.598707 3.695518
v 0.780360 0.598707 3.923141
v -0.000001 0.598707 4.000000
v -0.780363 0.598707 3.923141
v -1.530735 0.598707 3.695517
v -2.222283 0.598707 3.325877
v -2.828429 0.598707 2.828425
v -3.325880 0.598707 2.222279
v -3.695519 0.598707 1.530731
v -3.923142 0.598707 0.780358
v 3.209978 0.598708 0.638504
v 3.023734 0.598708 1.252471
v 2.721289 0.598708 1.818307
v 2.314266 0.598706 2.314266
v 1.818307 0.598706 2.721288
v 1.252471 0.598706 3.023733
v 0.638503 0.598706 3.209978
v -0.000001 0.598706 3.272866
v -0.638505 0.598707 3.209978
v -1.252473 0.598706 3.023733
v -1.818309 0.598706 2.721288
v -2.314268 0.598707 2.314264
v -2.721290 0.598707 1.818305
v -3.023736 0.598707 1.252469
v -3.209980 0.598707 0.638501
v -3.272865 0.193346 -0.000003
v -3.209978 0.193346 -0.638508
v -3.023731 0.193347 -1.252475
v -2.721285 0.193347 -1.818309
v -2.314263 0.193348 -2.314268
v -1.818303 0.193347 -2.721290
v -1.252466 0.193348 -3.023735
v -0.638499 0.193347 -3.209979
v 0.000000 0.193347 -3.272864
v 0.638505 0.193346 -3.209980
v 1.252473 0.193346 -3.023735
v 1.818307 0.193348 -2.721289
v 2.314266 0.193348 -2.314266
v 2.721289 0.193348 -1.818307
v 3.023734 0.193348 -1.252471
v 3.209979 0.193348 -0.638505
v 3.272865 0.193347 -0.000001
v 3.209978 0.193348 0.638504
v 3.023734 0.193348 1.252471
v 2.721289 0.193348 1.818307
v 2.314266 0.193346 2.314266
v 1.818307 0.193346 2.721288
v 1.252471 0.193346 3.023733
v 0.638503 0.193346 3.209978
v -0.000000 0.193346 3.272866
v -0.638505 0.193347 3.209978
v -1.252473 0.193346 3.023733
v -1.818309 0.193346 2.721288
v -2.314268 0.193347 2.314264
v -2.721290 0.193347 1.818305
v -3.023736 0.193347 1.252469
v -3.209980 0.193347 0.638501
v 0.677275 0.211960 -2.005925
v -1.078918 0.211960 -1.330006
v -1.083517 0.211960 -1.993725
v -0.168871 0.211960 -1.336312
v 0.682854 0.211960 -1.200796
v -0.802478 0.211960 1.697150
v 0.114411 0.211960 1.690797
v -1.083517 1.011960 -1.993725
v 0.677275 1.011960 -2.005925
v 0.677275 0.211960 -2.005925
v -1.083517 0.211960 -1.993725
v -1.078918 1.011960 -1.330006
v -1.078918 0.211960 -1.330006
v 0.682854 1.011960 -1.200796
v 0.682854 0.211960 -1.200796
v -0.168871 1.011960 -1.336312
v -0.168871 0.211960 -1.336312
v 0.114411 1.011960 1.690797
v 0.114411 0.211960 1.690797
v -0.802478 1.011960 1.697150
v -0.802478 0.211960 1.697150
v -1.078918 1.011960 -1.330006
v 0.677275 1.011960 -2.005925
v -1.083517 1.011960 -1.993725
v -0.168871 1.011960 -1.336312
v 0.682854 1.011960 -1.200796
v -0.802478 1.011960 1.697150
v 0.114411 1.011960 1.690797
v -1.078918 2.011960 -1.330006
v 0.677275 2.011960 -2.005925
v -0.168871 2.011960 -1.336312
v 0.682854 2.011960 -1.200796
v -0.802478 2.011960 1.697150
v -1.083517 2.011960 -1.993725
v 0.114411 2.011960 1.690797
vt 0.0960 0.5979
vt 0.1141 0.7822
vt 0.0960 0.7822
vt 0.5032 0.1645
vt 0.3879 0.2259
vt 0.4415 0.0496
vt 0.0782 0.5979
vt 0.0782 0.7822
vt 0.0947 0.0565
vt 0.0902 0.0795
vt 0.0796 0.0665
vt 0.1141 0.5979
vt 0.1319 0.7822
vt 0.1319 0.5979
vt 0.1486 0.7822
vt 0.1486 0.5979
vt 0.1635 0.7822
vt 0.4123 0.5058
vt 0.3985 0.3215
vt 0.4123 0.3215
vt 0.3985 0.5058
vt 0.3826 0.3215
vt 0.3826 0.5058
vt 0.3653 0.3215
vt 0.3653 0.5058
vt 0.3473 0.3215
vt 0.3473 0.5058
vt 0.3293 0.3215
vt 0.3293 0.5058
vt 0.3119 0.3215
vt 0.3119 0.5058
vt 0.2958 0.3215
vt 0.2958 0.5058
vt 0.2816 0.3215
vt 0.1891 0.5058
vt 0.1761 0.3215
vt 0.1891 0.3215
vt 0.1761 0.5058
vt 0.1608 0.3215
vt 0.1608 0.5058
vt 0.1440 0.3215
vt 0.1440 0.5058
vt 0.1261 0.3215
vt 0.1261 0.5058
vt 0.1080 0.3215
vt 0.1080 0.5058
vt 0.0903 0.3215
vt 0.0903 0.5058
vt 0.0737 0.3215
vt 0.0737 0.5058
vt 0.0588 0.3215
vt 0.0588 0.5058
vt 0.0462 0.3215
vt 0.5048 0.3215
vt 0.5180 0.5058
vt 0.5048 0.5058
vt 0.5180 0.3215
vt 0.5334 0.5058
vt 0.5334 0.3215
vt 0.5504 0.5058
vt 0.5504 0.3215
vt 0.5683 0.5058
vt 0.5683 0.3215
vt 0.5864 0.5058
vt 0.5864 0.3215
vt 0.6040 0.5058
vt 0.6040 0.3215
vt 0.6205 0.5058
vt 0.6205 0.3215
vt 0.6352 0.5058
vt 0.0462 0.5979
vt 0.0614 0.7822
vt 0.0462 0.7822
vt 0.0614 0.5979
vt 0.1739 0.2042
vt 0.1818 0.2190
vt 0.1651 0.2259
vt 0.8026 0.3604
vt 0.7277 0.3751
vt 0.7277 0.3604
vt 0.7277 0.3462
vt 0.8026 0.3462
vt 0.7277 0.3331
vt 0.8026 0.3331
vt 0.7277 0.3215
vt 0.8026 0.3215
vt 0.5980 0.6085
vt 0.6730 0.5979
vt 0.6730 0.6085
vt 0.6730 0.6210
vt 0.5980 0.6210
vt 0.5980 0.6347
vt 0.6730 0.6347
vt 0.6730 0.6493
vt 0.5980 0.6493
vt 0.5980 0.6640
vt 0.6730 0.6640
vt 0.5980 0.6785
vt 0.6730 0.6785
vt 0.6730 0.6920
vt 0.5980 0.6920
vt 0.6730 0.7042
vt 0.5980 0.7042
vt 0.6730 0.7144
vt 0.5980 0.7144
vt 0.7654 0.5979
vt 0.8404 0.6087
vt 0.7654 0.6087
vt 0.8404 0.6213
vt 0.7654 0.6213
vt 0.7654 0.6351
vt 0.8404 0.6351
vt 0.8404 0.6497
vt 0.7654 0.6497
vt 0.8404 0.6644
vt 0.7654 0.6644
vt 0.8404 0.6788
vt 0.7654 0.6788
vt 0.7654 0.6923
vt 0.8404 0.6923
vt 0.8404 0.7043
vt 0.7654 0.7043
vt 0.7654 0.7964
vt 0.8404 0.8088
vt 0.7654 0.8088
vt 0.8404 0.8225
vt 0.7654 0.8225
vt 0.8404 0.8370
vt 0.7654 0.8370
vt 0.8404 0.8518
vt 0.7654 0.8518
vt 0.7654 0.8662
vt 0.8404 0.8662
vt 0.8404 0.8798
vt 0.7654 0.8798
vt 0.8404 0.8920
vt 0.7654 0.8920
vt 0.8026 0.4281
vt 0.7277 0.4168
vt 0.8026 0.4168
vt 0.7277 0.4039
vt 0.8026 0.4039
vt 0.7277 0.3898
vt 0.8026 0.3898
vt 0.8026 0.3751
vt 0.7101 0.0546
vt 0.6819 0.1961
vt 0.6388 0.1875
vt 0.2967 0.8374
vt 0.2560 0.8527
vt 0.2560 0.8374
vt 0.2770 0.8527
vt 0.2967 0.8560
vt 0.2619 0.9225
vt 0.2831 0.9225
vt 0.3891 0.9072
vt 0.3891 0.9225
vt 0.4298 0.9225
vt 0.4102 0.9072
vt 0.4298 0.9039
vt 0.3950 0.8374
vt 0.4162 0.8374
vt 0.3891 0.9072
vt 0.4298 0.9225
vt 0.3891 0.9225
vt 0.4102 0.9072
vt 0.4298 0.9039
vt 0.3950 0.8374
vt 0.4162 0.8374
vt 0.3262 0.1110
vt 0.3332 0.0943
vt 0.3432 0.0793
vt 0.3560 0.0665
vt 0.3711 0.0565
vt 0.3879 0.0496
vt 0.4056 0.0461
vt 0.4238 0.0461
vt 0.4583 0.0565
vt 0.4733 0.0665
vt 0.4862 0.0793
vt 0.4962 0.0943
vt 0.5032 0.1110
vt 0.5067 0.1287
vt 0.5067 0.1468
vt 0.4962 0.1812
vt 0.4862 0.1962
vt 0.4733 0.2090
vt 0.4583 0.2190
vt 0.4415 0.2259
vt 0.4238 0.2294
vt 0.4056 0.2294
vt 0.3711 0.2190
vt 0.3560 0.2090
vt 0.3432 0.1962
vt 0.3332 0.1812
vt 0.3262 0.1645
vt 0.3227 0.1468
vt 0.3227 0.1287
vt 0.0668 0.0793
vt 0.0798 0.0899
vt 0.1114 0.0496
vt 0.1163 0.0656
vt 0.1292 0.0461
vt 0.1473 0.0461
vt 0.1456 0.0627
vt 0.1651 0.0496
vt 0.1818 0.0565
vt 0.1602 0.0656
vt 0.1969 0.0665
vt 0.1967 0.0899
vt 0.1862 0.0795
vt 0.2198 0.0943
vt 0.2049 0.1022
vt 0.2097 0.0793
vt 0.1308 0.0627
vt 0.0567 0.0943
vt 0.0462 0.1287
vt 0.0498 0.1110
vt 0.0630 0.1304
vt 0.0498 0.1645
vt 0.0462 0.1468
vt 0.0630 0.1451
vt 0.0715 0.1733
vt 0.0567 0.1812
vt 0.0658 0.1596
vt 0.1739 0.0713
vt 0.0658 0.1159
vt 0.0715 0.1022
vt 0.1026 0.0713
vt 0.1635 0.5979
vt 0.2816 0.5058
vt 0.0462 0.5058
vt 0.6352 0.3215
vt 0.0668 0.1962
vt 0.0798 0.1856
vt 0.0947 0.2190
vt 0.0796 0.2090
vt 0.1026 0.2042
vt 0.1292 0.2294
vt 0.1114 0.2259
vt 0.1163 0.2099
vt 0.1473 0.2294
vt 0.1456 0.2128
vt 0.1969 0.2090
vt 0.1862 0.1960
vt 0.2198 0.1812
vt 0.2097 0.1962
vt 0.1967 0.1856
vt 0.2302 0.1468
vt 0.2267 0.1645
vt 0.2135 0.1451
vt 0.2267 0.1110
vt 0.2302 0.1287
vt 0.2135 0.1304
vt 0.2106 0.1159
vt 0.1308 0.2128
vt 0.0902 0.1960
vt 0.2106 0.1596
vt 0.2049 0.1733
vt 0.1602 0.2099
vt 0.5980 0.5979
vt 0.8404 0.5979
vt 0.8404 0.7964
vt 0.7277 0.4281
vt 0.6264 0.1793
vt 0.6160 0.1689
vt 0.6077 0.1566
vt 0.5992 0.1285
vt 0.6020 0.1430
vt 0.5992 0.1137
vt 0.6020 0.0992
vt 0.6077 0.0855
vt 0.6160 0.0733
vt 0.6264 0.0628
vt 0.6388 0.0546
vt 0.6525 0.0489
vt 0.6670 0.0461
vt 0.6819 0.0461
vt 0.6964 0.0489
vt 0.7224 0.0628
vt 0.7329 0.0733
vt 0.7412 0.0855
vt 0.7468 0.0992
vt 0.7497 0.1137
vt 0.7412 0.1566
vt 0.7497 0.1285
vt 0.7468 0.1430
vt 0.7329 0.1689
vt 0.7224 0.1793
vt 0.7101 0.1875
vt 0.6964 0.1932
vt 0.6670 0.1961
vt 0.6525 0.1932
vt 0.8827 0.0461
vt 0.8422 0.1935
vt 0.8422 0.0461
vt 0.5980 0.9539
vt 0.6128 0.8065
vt 0.6128 0.9539
vt 0.3230 0.7453
vt 0.3416 0.5979
vt 0.3416 0.7453
vt 0.9538 0.5979
vt 0.9328 0.7453
vt 0.9328 0.5979
vt 0.2560 0.7453
vt 0.3230 0.5979
vt 0.4340 0.7453
vt 0.5056 0.5979
vt 0.5056 0.7453
vt 0.9162 0.3215
vt 0.8951 0.4689
vt 0.8951 0.3215
vt 0.8827 0.1935
vt 0.5980 0.8065
vt 0.9538 0.7453
vt 0.2560 0.5979
vt 0.4340 0.5979
vt 0.9162 0.4689
vn 0.0980 0.0000 -0.9952
vn 0.0000 -1.0000 0.0000
vn -0.0980 0.0000 -0.9952
vn -0.0000 1.0000 0.0000
vn 0.2903 0.0000 -0.9569
vn 0.4714 0.0000 -0.8819
vn 0.6344 0.0000 -0.7730
vn 0.7730 0.0000 -0.6344
vn 0.8819 0.0000 -0.4714
vn 0.9569 0.0000 -0.2903
vn 0.9952 0.0000 -0.0980
vn 0.9952 0.0000 0.0980
vn 0.9569 0.0000 0.2903
vn 0.8819 0.0000 0.4714
vn 0.7730 0.0000 0.6344
vn 0.6344 0.0000 0.7730
vn 0.4714 0.0000 0.8819
vn 0.2903 0.0000 0.9569
vn 0.0980 0.0000 0.9952
vn -0.0980 0.0000 0.9952
vn -0.2903 0.0000 0.9569
vn -0.4714 0.0000 0.8819
vn -0.6344 0.0000 0.7730
vn -0.7730 0.0000 0.6344
vn -0.8819 0.0000 0.4714
vn -0.9569 0.0000 0.2903
vn -0.9952 0.0000 0.0980
vn -0.9952 0.0000 -0.0980
vn -0.9569 0.0000 -0.2903
vn -0.8819 0.0000 -0.4714
vn -0.7730 0.0000 -0.6344
vn -0.6344 0.0000 -0.7730
vn -0.4714 0.0000 -0.8819
vn -0.2903 0.0000 -0.9569
vn 0.0069 0.0000 1.0000
vn 1.0000 0.0000 -0.0069
vn -1.0000 0.0000 0.0069
vn 0.9812 0.0000 0.1929
vn -0.9789 0.0000 -0.2045
vn -0.0069 0.0000 -1.0000
vn 0.7022 0.0000 -0.7120
vn -0.7120 0.0000 -0.7022
vn -0.7022 0.0000 0.7120
vn 0.9956 0.0000 0.0934
vn -0.7738 0.0000 0.6334
vn 0.6379 0.0000 0.7701
usemtl soldier_white
s off
f 2/1/1 4/2/1 1/3/1
f 18/4/2 26/5/2 10/6/2
f 35/7/3 1/3/3 34/8/3
f 2/9/4 52/10/4 3/11/4
f 3/12/5 5/13/5 4/2/5
f 66/14/6 6/15/6 5/13/6
f 65/16/7 7/17/7 6/15/7
f 64/18/8 8/19/8 7/20/8
f 63/21/9 9/22/9 8/19/9
f 62/23/10 10/24/10 9/22/10
f 61/25/11 11/26/11 10/24/11
f 60/27/12 12/28/12 11/26/12
f 67/29/13 13/30/13 12/28/13
f 68/31/14 14/32/14 13/30/14
f 69/33/15 15/34/15 14/32/15
f 70/35/16 16/36/16 15/37/16
f 71/38/17 17/39/17 16/36/17
f 72/40/18 18/41/18 17/39/18
f 73/42/19 19/43/19 18/41/19
f 74/44/20 20/45/20 19/43/20
f 75/46/21 21/47/21 20/45/21
f 76/48/22 22/49/22 21/47/22
f 77/50/23 23/51/23 22/49/23
f 78/52/24 24/53/24 23/51/24
f 79/54/25 25/55/25 24/56/25
f 80/57/26 26/58/26 25/55/26
f 81/59/27 27/60/27 26/58/27
f 42/61/28 28/62/28 27/60/28
f 41/63/29 29/64/29 28/62/29
f 40/65/30 30/66/30 29/64/30
f 39/67/31 31/68/31 30/66/31
f 38/69/32 32/70/32 31/68/32
f 37/71/33 33/72/33 32/73/33
f 36/74/34 34/8/34 33/72/34
f 89/75/4 74/76/4 73/77/4
f 44/78/12 97/79/12 98/80/12
f 44/78/13 99/81/13 45/82/13
f 45/82/14 100/83/14 46/84/14
f 46/84/15 101/85/15 47/86/15
f 48/87/16 101/88/16 102/89/16
f 48/87/17 103/90/17 49/91/17
f 50/92/18 103/90/18 104/93/18
f 50/92/19 105/94/19 51/95/19
f 52/96/20 105/94/20 106/97/20
f 53/98/21 106/97/21 107/99/21
f 53/98/22 108/100/22 54/101/22
f 54/101/23 109/102/23 55/103/23
f 55/103/24 110/104/24 56/105/24
f 56/106/25 111/107/25 57/108/25
f 57/108/26 112/109/26 58/110/26
f 59/111/27 112/109/27 113/112/27
f 59/111/28 114/113/28 82/114/28
f 82/114/29 115/115/29 83/116/29
f 83/116/30 116/117/30 84/118/30
f 85/119/31 116/117/31 117/120/31
f 85/119/32 118/121/32 86/122/32
f 86/123/33 119/124/33 87/125/33
f 87/125/34 120/126/34 88/127/34
f 88/127/3 121/128/3 89/129/3
f 89/129/1 122/130/1 90/131/1
f 91/132/5 122/130/5 123/133/5
f 91/132/6 124/134/6 92/135/6
f 92/135/7 125/136/7 93/137/7
f 93/138/8 126/139/8 94/140/8
f 94/140/9 127/141/9 95/142/9
f 95/142/10 128/143/10 96/144/10
f 43/145/11 128/143/11 97/79/11
f 118/146/4 105/147/4 102/148/4
f 129/149/2 130/150/2 131/151/2
f 132/152/2 130/150/2 129/149/2
f 133/153/2 132/152/2 129/149/2
f 133/153/2 134/154/2 132/152/2
f 135/155/2 134/154/2 133/153/2
f 150/156/2 152/157/2 151/158/2
f 150/156/2 151/158/2 153/159/2
f 153/159/2 151/158/2 154/160/2
f 155/161/2 153/159/2 154/160/2
f 155/161/2 154/160/2 156/162/2
f 157/163/4 158/164/4 162/165/4
f 157/163/4 159/166/4 158/164/4
f 159/166/4 160/167/4 158/164/4
f 161/168/4 160/167/4 159/166/4
f 161/168/4 163/169/4 160/167/4
f 156/162/35 161/168/35 155/161/35
f 151/158/36 160/167/36 154/160/36
f 150/156/37 162/165/37 152/157/37
f 154/160/38 163/169/38 156/162/38
f 155/161/39 159/166/39 153/159/39
f 153/159/35 157/163/35 150/156/35
f 152/157/40 158/164/40 151/158/40
f 2/1/1 3/12/1 4/2/1
f 34/170/2 1/171/2 4/172/2
f 4/172/2 5/173/2 6/174/2
f 6/174/2 7/175/2 8/176/2
f 8/176/2 9/177/2 6/174/2
f 10/6/2 11/178/2 12/179/2
f 12/179/2 13/180/2 10/6/2
f 14/181/2 15/182/2 18/4/2
f 16/183/2 17/184/2 18/4/2
f 18/4/2 19/185/2 20/186/2
f 20/186/2 21/187/2 22/188/2
f 22/188/2 23/189/2 24/190/2
f 24/190/2 25/191/2 26/5/2
f 26/5/2 27/192/2 28/193/2
f 28/193/2 29/194/2 30/195/2
f 30/195/2 31/196/2 34/170/2
f 32/197/2 33/198/2 34/170/2
f 34/170/2 4/172/2 10/6/2
f 6/174/2 9/177/2 10/6/2
f 10/6/2 13/180/2 14/181/2
f 15/182/2 16/183/2 18/4/2
f 18/4/2 20/186/2 26/5/2
f 22/188/2 24/190/2 26/5/2
f 26/5/2 28/193/2 34/170/2
f 31/196/2 32/197/2 34/170/2
f 4/172/2 6/174/2 10/6/2
f 10/6/2 14/181/2 18/4/2
f 20/186/2 22/188/2 26/5/2
f 28/193/2 30/195/2 34/170/2
f 34/170/2 10/6/2 26/5/2
f 35/7/3 2/1/3 1/3/3
f 66/199/4 3/11/4 53/200/4
f 2/9/4 35/201/4 50/202/4
f 36/203/4 37/204/4 48/205/4
f 38/206/4 39/207/4 47/208/4
f 40/209/4 44/210/4 45/211/4
f 42/212/4 43/213/4 44/210/4
f 42/212/4 44/210/4 41/214/4
f 39/207/4 40/209/4 45/211/4
f 35/201/4 36/203/4 49/215/4
f 65/216/4 66/199/4 53/200/4
f 63/217/4 64/218/4 56/219/4
f 61/220/4 62/221/4 57/222/4
f 59/223/4 60/224/4 61/220/4
f 58/225/4 59/223/4 61/220/4
f 62/221/4 63/217/4 56/219/4
f 41/214/4 44/210/4 40/209/4
f 39/207/4 45/211/4 46/226/4
f 57/222/4 58/225/4 61/220/4
f 56/219/4 57/222/4 62/221/4
f 39/207/4 46/226/4 47/208/4
f 38/206/4 47/208/4 48/205/4
f 56/219/4 64/218/4 55/227/4
f 55/227/4 64/218/4 65/216/4
f 37/204/4 38/206/4 48/205/4
f 36/203/4 48/205/4 49/215/4
f 54/228/4 55/227/4 65/216/4
f 53/200/4 54/228/4 65/216/4
f 35/201/4 49/215/4 50/202/4
f 2/9/4 50/202/4 51/229/4
f 53/200/4 3/11/4 52/10/4
f 2/9/4 51/229/4 52/10/4
f 3/12/5 66/14/5 5/13/5
f 66/14/6 65/16/6 6/15/6
f 65/16/7 64/230/7 7/17/7
f 64/18/8 63/21/8 8/19/8
f 63/21/9 62/23/9 9/22/9
f 62/23/10 61/25/10 10/24/10
f 61/25/11 60/27/11 11/26/11
f 60/27/12 67/29/12 12/28/12
f 67/29/13 68/31/13 13/30/13
f 68/31/14 69/33/14 14/32/14
f 69/33/15 70/231/15 15/34/15
f 70/35/16 71/38/16 16/36/16
f 71/38/17 72/40/17 17/39/17
f 72/40/18 73/42/18 18/41/18
f 73/42/19 74/44/19 19/43/19
f 74/44/20 75/46/20 20/45/20
f 75/46/21 76/48/21 21/47/21
f 76/48/22 77/50/22 22/49/22
f 77/50/23 78/52/23 23/51/23
f 78/52/24 79/232/24 24/53/24
f 79/54/25 80/57/25 25/55/25
f 80/57/26 81/59/26 26/58/26
f 81/59/27 42/61/27 27/60/27
f 42/61/28 41/63/28 28/62/28
f 41/63/29 40/65/29 29/64/29
f 40/65/30 39/67/30 30/66/30
f 39/67/31 38/69/31 31/68/31
f 38/69/32 37/233/32 32/70/32
f 37/71/33 36/74/33 33/72/33
f 36/74/34 35/7/34 34/8/34
f 67/234/4 60/224/4 82/235/4
f 60/224/4 59/223/4 82/235/4
f 69/236/4 68/237/4 84/238/4
f 71/239/4 70/240/4 85/241/4
f 73/77/4 72/242/4 87/243/4
f 75/244/4 74/76/4 90/245/4
f 77/246/4 76/247/4 91/248/4
f 79/249/4 78/250/4 94/251/4
f 81/252/4 80/253/4 95/254/4
f 43/213/4 42/212/4 96/255/4
f 96/255/4 42/212/4 81/252/4
f 80/253/4 79/249/4 94/251/4
f 76/247/4 75/244/4 91/248/4
f 72/242/4 71/239/4 86/256/4
f 68/237/4 67/234/4 82/235/4
f 68/237/4 82/235/4 83/257/4
f 95/254/4 96/255/4 81/252/4
f 94/251/4 95/254/4 80/253/4
f 68/237/4 83/257/4 84/238/4
f 69/236/4 84/238/4 85/241/4
f 94/251/4 78/250/4 93/258/4
f 93/258/4 78/250/4 92/259/4
f 70/240/4 69/236/4 85/241/4
f 71/239/4 85/241/4 86/256/4
f 92/259/4 78/250/4 77/246/4
f 91/248/4 92/259/4 77/246/4
f 72/242/4 86/256/4 87/243/4
f 73/77/4 87/243/4 88/260/4
f 91/248/4 75/244/4 90/245/4
f 90/245/4 74/76/4 89/75/4
f 73/77/4 88/260/4 89/75/4
f 44/78/12 43/145/12 97/79/12
f 44/78/13 98/80/13 99/81/13
f 45/82/14 99/81/14 100/83/14
f 46/84/15 100/83/15 101/85/15
f 48/87/16 47/261/16 101/88/16
f 48/87/17 102/89/17 103/90/17
f 50/92/18 49/91/18 103/90/18
f 50/92/19 104/93/19 105/94/19
f 52/96/20 51/95/20 105/94/20
f 53/98/21 52/96/21 106/97/21
f 53/98/22 107/99/22 108/100/22
f 54/101/23 108/100/23 109/102/23
f 55/103/24 109/102/24 110/104/24
f 56/106/25 110/262/25 111/107/25
f 57/108/26 111/107/26 112/109/26
f 59/111/27 58/110/27 112/109/27
f 59/111/28 113/112/28 114/113/28
f 82/114/29 114/113/29 115/115/29
f 83/116/30 115/115/30 116/117/30
f 85/119/31 84/118/31 116/117/31
f 85/119/32 117/120/32 118/121/32
f 86/123/33 118/263/33 119/124/33
f 87/125/34 119/124/34 120/126/34
f 88/127/3 120/126/3 121/128/3
f 89/129/1 121/128/1 122/130/1
f 91/132/5 90/131/5 122/130/5
f 91/132/6 123/133/6 124/134/6
f 92/135/7 124/134/7 125/136/7
f 93/138/8 125/264/8 126/139/8
f 94/140/9 126/139/9 127/141/9
f 95/142/10 127/141/10 128/143/10
f 43/145/11 96/144/11 128/143/11
f 102/148/4 101/265/4 100/266/4
f 100/266/4 99/267/4 97/268/4
f 98/269/4 97/268/4 99/267/4
f 128/270/4 127/271/4 126/272/4
f 126/272/4 125/273/4 97/268/4
f 124/274/4 123/275/4 122/276/4
f 122/276/4 121/277/4 120/278/4
f 120/278/4 119/279/4 122/276/4
f 118/146/4 117/280/4 116/281/4
f 116/281/4 115/282/4 118/146/4
f 114/283/4 113/284/4 110/285/4
f 112/286/4 111/287/4 110/285/4
f 110/285/4 109/288/4 108/289/4
f 108/289/4 107/290/4 106/291/4
f 106/291/4 105/147/4 108/289/4
f 104/292/4 103/293/4 102/148/4
f 102/148/4 100/266/4 122/276/4
f 97/268/4 128/270/4 126/272/4
f 125/273/4 124/274/4 122/276/4
f 122/276/4 119/279/4 118/146/4
f 118/146/4 115/282/4 114/283/4
f 113/284/4 112/286/4 110/285/4
f 110/285/4 108/289/4 105/147/4
f 105/147/4 104/292/4 102/148/4
f 100/266/4 97/268/4 122/276/4
f 125/273/4 122/276/4 97/268/4
f 118/146/4 114/283/4 110/285/4
f 110/285/4 105/147/4 118/146/4
f 102/148/4 122/276/4 118/146/4
f 156/162/35 163/169/35 161/168/35
f 151/158/36 158/164/36 160/167/36
f 150/156/37 157/163/37 162/165/37
f 154/160/38 160/167/38 163/169/38
f 155/161/39 161/168/39 159/166/39
f 153/159/35 159/166/35 157/163/35
f 152/157/40 162/165/40 158/164/40
s 1
f 137/294/41 139/295/42 136/296/42
f 136/297/42 141/298/43 140/299/43
f 142/300/44 138/301/41 137/302/41
f 140/303/43 145/304/45 144/305/45
f 146/306/46 143/307/44 142/300/44
f 144/308/45 149/309/45 148/310/45
f 148/311/45 147/312/46 146/313/46
f 137/294/41 138/314/41 139/295/42
f 136/297/42 139/315/42 141/298/43
f 142/300/44 143/307/44 138/301/41
f 140/303/43 141/316/43 145/304/45
f 146/306/46 147/317/46 143/307/44
f 144/308/45 145/318/45 149/309/45
f 148/311/45 149/319/45 147/312/46
